<svg width="150" height="150" viewBox="0 0 150 150" fill="none" xmlns="http://www.w3.org/2000/svg">
<path fill-rule="evenodd" clip-rule="evenodd" d="M78.0227 136C111.712 136 139.023 108.689 139.023 75C139.023 68.1719 137.901 61.6058 135.831 55.476L149.683 19.1957L113.064 25.063C103.149 18.0924 91.0638 14 78.0227 14C44.3333 14 17.0227 41.3106 17.0227 75C17.0227 79.5464 17.5201 83.9767 18.4634 88.2394L18.0779 87.6845L0 126.076L40.0285 122.725C50.4514 131.034 63.6572 136 78.0227 136Z" fill="white"/>
<path fill-rule="evenodd" clip-rule="evenodd" d="M102.232 38.2278L103.64 37.2158L101.616 34.4003L100.208 35.4123L77.7155 51.5818L76.3078 52.5938L78.3318 55.4093L79.7395 54.3973L102.232 38.2278ZM72.4109 61.5246C74.6576 61.1177 76.1492 58.9664 75.7423 56.7197C75.3354 54.4729 73.1841 52.9814 70.9374 53.3883C68.6906 53.7952 67.1991 55.9464 67.606 58.1932C68.0129 60.4399 70.1641 61.9315 72.4109 61.5246Z" fill="black"/>
<path fill-rule="evenodd" clip-rule="evenodd" d="M49.765 108.574L48.3308 109.548L50.2791 112.416L51.7133 111.442L86.752 87.6422L88.1862 86.6681L86.2379 83.7997L84.8037 84.7739L49.765 108.574ZM91.1688 78.2265C89.0504 78.5661 87.6143 80.5956 87.9611 82.7595C88.308 84.9235 90.3065 86.4024 92.4249 86.0629C94.5433 85.7233 95.9795 83.6938 95.6326 81.5299C95.2858 79.3659 93.2873 77.887 91.1688 78.2265Z" fill="black"/>
<path fill-rule="evenodd" clip-rule="evenodd" d="M138.116 33.2836C138.225 35.9539 136.149 38.2071 133.478 38.3163C130.808 38.4254 128.555 36.3491 128.446 33.6788C128.336 31.0085 130.413 28.7553 133.083 28.6462C135.753 28.5371 138.006 30.6133 138.116 33.2836ZM27.0868 109.74C27.1996 112.5 25.0541 114.828 22.2948 114.941C19.5355 115.053 17.2072 112.908 17.0944 110.149C16.9817 107.389 19.1271 105.061 21.8864 104.948C24.6458 104.836 26.974 106.981 27.0868 109.74ZM125.899 40.2941L127.326 39.3101L125.359 36.4552L123.931 37.4391L29.0445 102.843L27.617 103.827L29.5849 106.682L31.0124 105.698L125.899 40.2941Z" fill="black"/>
<path fill-rule="evenodd" clip-rule="evenodd" d="M49.833 112.015C57.6362 117.88 67.3375 121.355 77.8506 121.355C103.63 121.355 124.528 100.457 124.528 74.6777C124.528 64.1647 121.053 54.4634 115.188 46.6602L112.328 49.5205C117.484 56.5747 120.527 65.2708 120.527 74.6777C120.527 98.2474 101.42 117.354 77.8506 117.354C68.4436 117.354 59.7475 114.311 52.6933 109.155L49.833 112.015ZM98.648 37.4027C92.4946 33.962 85.4016 32.0009 77.8506 32.0009C54.2808 32.0009 35.1738 51.108 35.1738 74.6777C35.1738 82.2287 37.1349 89.3217 40.5755 95.4752L37.6451 98.4056C33.5329 91.4528 31.1729 83.3408 31.1729 74.6777C31.1729 48.8983 52.0712 28 77.8506 28C86.5137 28 94.6256 30.36 101.578 34.4722L98.648 37.4027Z" fill="black"/>
</svg>
