<svg width="150" height="150" viewBox="0 0 150 150" fill="none" xmlns="http://www.w3.org/2000/svg">
<path fill-rule="evenodd" clip-rule="evenodd" d="M78.021 137.997C111.71 137.997 139.02 110.687 139.02 76.9986C139.02 70.1707 137.898 63.6048 135.828 57.4752L149.68 21.1956L113.062 27.0627C103.147 20.0923 91.0618 16 78.021 16C44.3323 16 17.0223 43.31 17.0223 76.9986C17.0223 81.545 17.5197 85.9752 18.463 90.2378L18.0775 89.6828L0 128.074L40.0276 124.723C50.4503 133.032 63.6557 137.997 78.021 137.997Z" fill="black"/>
<path fill-rule="evenodd" clip-rule="evenodd" d="M102.23 40.2269L103.638 39.2149L101.614 36.3995L100.206 37.4114L77.7135 53.5806L76.3058 54.5926L78.3297 57.408L79.7375 56.396L102.23 40.2269ZM72.409 63.5231C74.6557 63.1162 76.1472 60.9651 75.7403 58.7184C75.3334 56.4716 73.1822 54.9802 70.9355 55.387C68.6888 55.7939 67.1973 57.9451 67.6042 60.1918C68.0111 62.4385 70.1623 63.93 72.409 63.5231Z" fill="white"/>
<path fill-rule="evenodd" clip-rule="evenodd" d="M49.7637 110.572L48.3295 111.546L50.2778 114.414L51.7119 113.44L86.7499 89.6407L88.184 88.6665L86.2358 85.7982L84.8016 86.7724L49.7637 110.572ZM91.1666 80.2251C89.0482 80.5647 87.6121 82.5941 87.9589 84.758C88.3058 86.9219 90.3042 88.4009 92.4226 88.0613C94.541 87.7218 95.9771 85.6923 95.6303 83.5284C95.2834 81.3645 93.285 79.8856 91.1666 80.2251Z" fill="white"/>
<path fill-rule="evenodd" clip-rule="evenodd" d="M138.112 35.2831C138.221 37.9534 136.145 40.2065 133.475 40.3157C130.805 40.4248 128.552 38.3486 128.443 35.6783C128.333 33.0081 130.41 30.755 133.08 30.6458C135.75 30.5367 138.003 32.6129 138.112 35.2831ZM27.086 111.738C27.1988 114.497 25.0534 116.826 22.2941 116.938C19.5349 117.051 17.2066 114.906 17.0939 112.146C16.9811 109.387 19.1265 107.059 21.8858 106.946C24.645 106.833 26.9733 108.979 27.086 111.738ZM125.896 42.2934L127.323 41.3095L125.356 38.4546L123.928 39.4385L29.0437 104.841L27.6162 105.825L29.5841 108.68L31.0115 107.696L125.896 42.2934Z" fill="white"/>
<path fill-rule="evenodd" clip-rule="evenodd" d="M49.8316 114.013C57.6347 119.877 67.3357 123.353 77.8485 123.353C103.627 123.353 124.525 102.455 124.525 76.6762C124.525 66.1634 121.05 56.4623 115.185 48.6593L112.325 51.5195C117.481 58.5736 120.524 67.2694 120.524 76.6762C120.524 100.245 101.418 119.352 77.8485 119.352C68.4418 119.352 59.7459 116.308 52.6919 111.153L49.8316 114.013ZM98.6455 39.402C92.4922 35.9614 85.3994 34.0004 77.8485 34.0004C54.2793 34.0004 35.1727 53.107 35.1727 76.6762C35.1727 84.227 37.1338 91.3199 40.5743 97.4732L37.6439 100.404C33.5318 93.4509 31.1719 85.3391 31.1719 76.6762C31.1719 50.8974 52.0697 29.9995 77.8485 29.9995C86.5115 29.9995 94.6232 32.3595 101.576 36.4716L98.6455 39.402Z" fill="white"/>
</svg>
